<svg width="20" height="20" viewBox="0 0 20 20" fill="none" xmlns="http://www.w3.org/2000/svg">
<path fill-rule="evenodd" clip-rule="evenodd" d="M6.32244 2.59C5.99128 2.84267 5.59931 3.23276 5.01866 3.81341L3.81341 5.01866C3.23276 5.59931 2.84267 5.99128 2.59 6.32244C2.34834 6.63918 2.29199 6.8258 2.29199 6.98721C2.29199 7.14862 2.34834 7.33524 2.59 7.65198C2.84267 7.98313 3.23276 8.37508 3.81341 8.95574C4.05749 9.19983 4.05749 9.59558 3.81341 9.83966C3.56933 10.0837 3.17361 10.0837 2.92953 9.83966L2.89878 9.80891C2.35681 9.26699 1.90588 8.81608 1.59623 8.41024C1.26973 7.98228 1.04199 7.53182 1.04199 6.98721C1.04199 6.4426 1.26973 5.99214 1.59623 5.56421C1.90588 5.15836 2.35681 4.70746 2.89878 4.16553C2.90899 4.15531 2.91924 4.14506 2.92953 4.13478L4.13478 2.92953C4.14505 2.91925 4.1553 2.909 4.16552 2.89878C4.70745 2.35681 5.15836 1.90588 5.56421 1.59623C5.99214 1.26973 6.4426 1.04199 6.98721 1.04199C7.53182 1.04199 7.98228 1.26973 8.41023 1.59623C8.81606 1.90588 9.26698 2.35681 9.80889 2.89878L9.83964 2.92953C9.95689 3.04673 10.0227 3.20571 10.0227 3.37147C10.0227 3.53723 9.95689 3.6962 9.83964 3.81341L7.8309 5.82215C7.58683 6.06623 7.19109 6.06623 6.94702 5.82215C6.70294 5.57808 6.70294 5.18235 6.94702 4.93827L8.51281 3.37248C8.16203 3.02663 7.89115 2.77248 7.65198 2.59C7.33524 2.34833 7.14862 2.29199 6.98721 2.29199C6.8258 2.29199 6.63918 2.34834 6.32244 2.59ZM16.6292 9.97791C16.795 9.97791 16.9539 10.0438 17.0711 10.161L17.1019 10.1917C17.6438 10.7337 18.0948 11.1846 18.4044 11.5904C18.7309 12.0184 18.9586 12.4688 18.9586 13.0134C18.9586 13.5581 18.7309 14.0085 18.4044 14.4364C18.0948 14.8423 17.6438 15.2932 17.1019 15.8352L15.8351 17.1019C15.2932 17.6438 14.8423 18.0947 14.4365 18.4044C14.0085 18.7309 13.5581 18.9587 13.0135 18.9587C12.4688 18.9587 12.0184 18.7309 11.5905 18.4044C11.1846 18.0947 10.7337 17.6438 10.1917 17.1019L10.161 17.0712C9.91689 16.8271 9.91689 16.4313 10.161 16.1872C10.4051 15.9432 10.8008 15.9432 11.0449 16.1872C11.6256 16.7679 12.0175 17.158 12.3486 17.4107C12.6654 17.6523 12.8521 17.7087 13.0135 17.7087C13.1749 17.7087 13.3615 17.6523 13.6782 17.4107C14.0094 17.158 14.4013 16.7679 14.982 16.1872L16.1872 14.982C16.7679 14.4013 17.158 14.0094 17.4106 13.6782C17.6523 13.3615 17.7086 13.1748 17.7086 13.0134C17.7086 12.852 17.6523 12.6654 17.4106 12.3487C17.2281 12.1095 16.9741 11.8387 16.6281 11.4878L15.0624 13.0537C14.8183 13.2977 14.4226 13.2977 14.1785 13.0537C13.9344 12.8096 13.9344 12.4138 14.1785 12.1697L16.1872 10.161C16.3045 10.0438 16.4634 9.97791 16.6292 9.97791Z" fill="white"/>
<path fill-rule="evenodd" clip-rule="evenodd" d="M12.2975 2.18487C13.8213 0.661034 16.292 0.661034 17.8158 2.18487C19.3397 3.7087 19.3397 6.17932 17.8158 7.70315L9.91141 15.6076C9.45983 16.0592 9.19391 16.3251 8.89816 16.5557C8.54966 16.8276 8.17245 17.0607 7.77338 17.2509C7.43479 17.4122 7.07811 17.5312 6.47218 17.7331L3.69625 18.6584L3.02785 18.8812C2.48572 19.0619 1.88801 18.9208 1.48393 18.5167C1.07984 18.1127 0.938742 17.5149 1.11946 16.9728L2.26756 13.5285C2.46952 12.9226 2.58839 12.5659 2.74976 12.2273C2.93995 11.8282 3.17305 11.4511 3.44494 11.1025C3.67562 10.8067 3.94148 10.5409 4.39313 10.0892L12.2975 2.18487ZM16.9319 3.06875C15.8962 2.03307 14.2171 2.03307 13.1814 3.06875L12.6298 3.62036C12.6583 3.76616 12.7065 3.96436 12.7868 4.19605C12.9678 4.71768 13.3097 5.40272 13.9538 6.04687C14.5979 6.691 15.283 7.03285 15.8046 7.21382C16.0363 7.29421 16.2345 7.34237 16.3803 7.37087L16.9319 6.81926C17.9676 5.78358 17.9676 4.10442 16.9319 3.06875ZM15.3664 8.38482C14.7092 8.153 13.8625 7.72335 13.0699 6.93075C12.2773 6.13814 11.8477 5.29148 11.6159 4.63428L5.30797 10.9422C4.81658 11.4336 4.60832 11.6433 4.43057 11.8712C4.21452 12.1482 4.02929 12.4479 3.87817 12.7651C3.75383 13.0259 3.65933 13.3061 3.43957 13.9653L2.65026 16.3332L3.66742 17.3504L6.03535 16.5611C6.69461 16.3413 6.97472 16.2468 7.2356 16.1225C7.55272 15.9714 7.85243 15.7862 8.12943 15.5701C8.35733 15.3923 8.56708 15.1841 9.05849 14.6927L15.3664 8.38482Z" fill="white"/>
</svg>
