<svg width="40" height="40" viewBox="0 0 40 40" fill="none" xmlns="http://www.w3.org/2000/svg">
<path fill-rule="evenodd" clip-rule="evenodd" d="M12.58 35.9996C27.674 35.9996 35.93 23.6867 35.93 13.0103C35.93 12.6598 35.93 12.312 35.906 11.9654C37.512 10.8233 38.898 9.40531 40 7.78279C38.504 8.43653 36.914 8.86526 35.288 9.05428C37 8.04414 38.282 6.45715 38.896 4.58455C37.284 5.52577 35.522 6.19004 33.684 6.54646C30.576 3.29352 25.378 3.13592 22.072 6.19588C19.942 8.1689 19.036 11.1106 19.698 13.9166C13.1 13.5897 6.952 10.5219 2.784 5.47518C0.606 9.1672 1.72 13.8886 5.326 16.2594C4.02 16.2219 2.742 15.8758 1.6 15.2496V15.3521C1.602 19.1978 4.356 22.5091 8.184 23.2711C6.976 23.596 5.708 23.6431 4.48 23.4088C5.554 26.7011 8.636 28.9561 12.146 29.0211C9.24 31.2698 5.65 32.4908 1.954 32.4869C1.302 32.4849 0.65 32.4475 0 32.3707C3.754 34.7415 8.12 35.9996 12.58 35.9937" fill="white"/>
</svg>
